<svg width="573" height="142" viewBox="0 0 573 142" fill="none" xmlns="http://www.w3.org/2000/svg">
<g clip-path="url(#clip0_490_5326)">
<mask id="mask0_490_5326" style="mask-type:luminance" maskUnits="userSpaceOnUse" x="0" y="0" width="573" height="142">
<path d="M573 0H0V142H573V0Z" fill="white"/>
</mask>
<g mask="url(#mask0_490_5326)">
<path d="M171.813 12.82C175.391 12.8083 178.937 13.5042 182.246 14.8679C185.555 16.2315 188.562 18.2358 191.093 20.7655C193.625 23.2953 195.631 26.3006 196.997 29.6086C198.363 32.9165 199.061 36.4619 199.052 40.0408C199.052 54.9614 186.812 66.9818 171.831 66.9818C156.85 66.9818 144.61 54.952 144.61 40.0408C144.601 36.4651 145.298 32.9227 146.662 29.6172C148.025 26.3117 150.029 23.3081 152.556 20.7788C155.084 18.2495 158.086 16.2444 161.39 14.8786C164.695 13.5128 168.237 12.8132 171.813 12.82ZM171.813 57.9781C181.73 57.9781 189.396 49.5853 189.396 39.9708C189.396 29.9833 181.59 21.8236 171.813 21.8236C162.035 21.8236 154.23 29.9833 154.23 39.9708C154.23 49.6086 161.895 57.9781 171.813 57.9781Z" fill="white"/>
<path d="M204.423 26.8871H213.003V31.4612H213.143C214.637 29.5476 216.563 28.0147 218.763 26.988C220.963 25.9612 223.375 25.4697 225.802 25.5536C238.606 25.5536 245.357 36.5949 245.357 46.2327C245.357 57.7635 236.848 67.2148 225.802 67.2148C219.19 67.2148 216.239 64.543 213.777 62.221V78.9601H204.423V26.8871ZM224.608 58.5934C229.602 58.5934 236.004 54.3737 236.004 46.3586C236.004 39.1827 230.516 34.119 224.748 34.119C218.98 34.119 213.212 38.833 213.212 46.3586C213.212 55.0125 220.179 58.6074 224.608 58.6074V58.5934Z" fill="white"/>
<path d="M258.268 50.5925C258.693 53.1243 262.348 58.6077 269.03 58.6077C273.18 58.6077 276.276 56.8498 278.034 53.6139H287.877C285.624 60.6499 278.169 67.1917 269.025 67.1917C266.309 67.2041 263.618 66.6772 261.108 65.6415C258.597 64.6058 256.317 63.082 254.4 61.1583C252.483 59.2347 250.967 56.9496 249.94 54.4355C248.912 51.9214 248.395 49.2284 248.416 46.5126C248.416 35.4714 256.926 25.3394 268.932 25.3394C281.311 25.3394 289.117 36.0309 289.117 45.8552C289.103 47.4422 288.915 49.0229 288.557 50.5692L258.268 50.5925ZM279.582 43.0669C278.523 36.8282 273.655 33.9234 269.025 33.9234C265.58 33.9234 259.742 35.8211 257.984 43.0669H279.582Z" fill="white"/>
<path d="M294.063 26.8872H302.717V30.263C304.265 28.7896 307.501 25.5537 313.409 25.5537C316.785 25.5537 321.918 27.0271 325.154 30.9671C328.74 35.2568 328.74 41.7985 328.74 44.8246V65.9233H319.387V46.6524C319.387 43.4165 319.387 34.133 311.507 34.133C309.819 34.133 306.797 34.977 305.109 37.5788C303.422 39.9707 303.422 44.0506 303.422 47.3704V65.9233H294.063V26.8872Z" fill="white"/>
<path d="M336.569 13.8782H347.54L369.063 51.7159H369.208V13.8782H378.841V65.9231H368.079L346.347 28.0854H346.207V65.9231H336.569V13.8782Z" fill="white"/>
<path d="M394.675 50.5925C395.095 53.1243 398.755 58.6077 405.436 58.6077C409.586 58.6077 412.682 56.8498 414.44 53.6139H424.288C422.036 60.6499 414.58 67.1917 405.436 67.1917C402.721 67.2041 400.029 66.6772 397.519 65.6415C395.008 64.6058 392.728 63.082 390.811 61.1583C388.894 59.2347 387.378 56.9496 386.351 54.4355C385.323 51.9214 384.806 49.2284 384.827 46.5126C384.827 35.4714 393.337 25.3394 405.343 25.3394C417.723 25.3394 425.528 36.0309 425.528 45.8552C425.515 47.4426 425.326 49.0236 424.964 50.5692L394.675 50.5925ZM415.988 43.0669C414.93 36.8049 410.076 33.9234 405.436 33.9234C401.991 33.9234 396.153 35.8211 394.395 43.0669H415.988Z" fill="white"/>
<path d="M430.251 13.8782H439.605V30.4027C442.873 27.2607 447.241 25.5205 451.774 25.5536C463.66 25.5536 471.4 35.8907 471.4 46.2326C471.4 54.0379 466.271 67.2147 451.984 67.2147C444.459 67.2147 441.153 63.8389 438.831 61.2371V65.9464H430.251V13.8782ZM450.791 58.6074C456.908 58.6074 462.042 53.8981 462.042 46.3025C462.042 38.707 456.558 34.1329 450.651 34.1329C443.475 34.1329 439.045 40.1944 439.045 45.8782C439.045 54.5461 445.303 58.6074 450.791 58.6074Z" fill="white"/>
<path d="M510.58 26.8872V65.9233H502.001V62.0066H501.861C500.313 64.1141 497.781 67.2101 491.804 67.2101C484.698 67.2101 480.688 63.6945 478.72 61.0181C475.834 56.8683 475.834 50.541 475.834 47.3051V26.8872H485.192V46.7922C485.192 49.9582 485.192 58.6075 493.352 58.6075C499.259 58.6075 501.227 53.0542 501.227 46.8622V26.8872H510.58Z" fill="white"/>
<path d="M517.537 13.8782H526.895V65.9231H517.537V13.8782Z" fill="white"/>
<path d="M573 65.9233H564.416V61.0741C561.464 64.5944 555.697 67.1962 550.773 67.1962C540.715 67.1962 531.782 59.1764 531.782 46.1628C531.782 34.2077 540.501 25.5583 551.332 25.5583C559.259 25.5583 563.996 31.2515 564.276 31.8157H564.416V26.8872H573V65.9233ZM552.741 34.133C545.075 34.133 541.135 40.7447 541.135 46.5824C541.135 53.1941 546.059 58.6075 552.741 58.6075C559.212 58.6075 564.136 53.5438 564.136 46.3027C564.141 38.2269 558.312 34.133 552.755 34.133H552.741Z" fill="white"/>
<path d="M35.3706 141.8H110.791C111.232 141.798 111.657 141.63 111.981 141.33C112.164 141.167 112.311 140.967 112.411 140.743C112.511 140.519 112.562 140.275 112.561 140.03V69.9399C82.1258 98.026 42.7427 114.45 1.37061 116.31C3.52433 123.661 8.00058 130.117 14.1295 134.712C20.2585 139.307 27.7105 141.794 35.3706 141.8Z" fill="white"/>
<path d="M112.601 140.03H112.611L112.601 140.02V140.03Z" fill="white"/>
<path d="M110.83 9.41368e-07H110.7C102.766 0.484659 95.2238 3.62074 89.2849 8.90503C83.346 14.1893 79.3543 21.3154 77.9504 29.14C77.8753 29.546 77.6599 29.9127 77.3419 30.1759C77.0238 30.4391 76.6233 30.5822 76.2104 30.58C75.9117 30.5646 75.6222 30.4715 75.3704 30.31L75.2704 30.24C69.0912 26.3097 61.8453 24.3926 54.5309 24.7527C47.2166 25.1128 40.194 27.7324 34.4308 32.2506C28.6675 36.7688 24.4474 42.9633 22.3519 49.9802C20.2564 56.9972 20.3886 64.4913 22.7304 71.43C22.791 71.6139 22.8215 71.8064 22.8204 72C22.8212 72.3557 22.7147 72.7034 22.5149 72.9977C22.3151 73.2921 22.0313 73.5194 21.7004 73.65C13.6927 77.0108 7.19983 83.1978 3.45684 91.0341C-0.286146 98.8704 -1.01802 107.809 1.40042 116.15C30.7975 114.166 58.4209 101.375 78.9501 80.2405C99.4792 59.1058 111.462 31.1223 112.59 1.67999C112.57 1.22722 112.375 0.799833 112.047 0.486878C111.72 0.173923 111.284 -0.000467519 110.83 9.41368e-07Z" fill="white"/>
<path d="M182.092 125H178.836V96.004H178.748L166.56 125H163.788L151.688 96.004H151.6V125H148.344V92.44H153.36L165.196 120.16L177.076 92.44H182.092V125Z" fill="white"/>
<path d="M212.757 125H209.677V120.776H209.589C207.477 123.944 203.957 125.572 200.217 125.572C193.001 125.572 187.281 120.16 187.281 112.9C187.281 105.684 193.133 100.316 200.217 100.316C204.001 100.316 207.521 101.9 209.589 105.156H209.677V100.932H212.757V125ZM209.853 112.988C209.853 107.62 205.673 103.088 200.217 103.088C194.497 103.088 190.361 107.356 190.361 113.032C190.361 118.664 194.585 122.8 200.217 122.8C205.673 122.8 209.853 118.356 209.853 112.988Z" fill="white"/>
<path d="M228.272 103.572C224.048 103.924 221.409 106.608 221.409 110.92V125H218.328V100.932H221.409V104.408H221.496C222.816 101.328 225.148 100.536 228.272 100.316V103.572Z" fill="white"/>
<path d="M251.904 125H247.944L240.024 115.496L236.152 120.424V125H233.072V92.44H236.152V115.628H236.24L247.46 100.932H251.42L241.916 113.076L251.904 125Z" fill="white"/>
<path d="M278.014 113.208C278.014 113.516 277.971 113.78 277.971 114.088H256.059C256.279 118.84 260.678 122.8 265.386 122.8C269.082 122.8 272.69 120.688 274.01 117.124H277.266C275.506 122.14 270.755 125.572 265.431 125.572C258.479 125.572 252.891 119.896 252.891 112.988C252.891 106.124 258.478 100.316 265.386 100.316C272.426 100.316 278.014 106.256 278.014 113.208ZM274.846 111.316C274.054 106.608 270.271 103.088 265.431 103.088C260.635 103.088 256.807 106.608 256.059 111.316H274.846Z" fill="white"/>
<path d="M294.356 103.704H288.592V125H285.512V103.704H280.452V100.932H285.512V92.44H288.592V100.932H294.356V103.704Z" fill="white"/>
<path d="M323.038 112.9C323.038 120.16 317.318 125.572 310.102 125.572C306.362 125.572 302.842 123.856 300.73 120.776H300.642V133.448H297.562V100.932H300.642V105.156H300.73C302.93 102.032 306.318 100.316 310.102 100.316C317.186 100.316 323.038 105.684 323.038 112.9ZM319.958 113.032C319.958 107.356 315.822 103.088 310.102 103.088C304.646 103.088 300.466 107.62 300.466 112.988C300.466 118.356 304.646 122.8 310.102 122.8C315.734 122.8 319.958 118.664 319.958 113.032Z" fill="white"/>
<path d="M330.678 125H327.598V92.44H330.678V125Z" fill="white"/>
<path d="M360.871 125H357.791V120.776H357.703C355.591 123.944 352.071 125.572 348.331 125.572C341.115 125.572 335.395 120.16 335.395 112.9C335.395 105.684 341.247 100.316 348.331 100.316C352.115 100.316 355.635 101.9 357.703 105.156H357.791V100.932H360.871V125ZM357.967 112.988C357.967 107.62 353.787 103.088 348.331 103.088C342.611 103.088 338.475 107.356 338.475 113.032C338.475 118.664 342.699 122.8 348.331 122.8C353.787 122.8 357.967 118.356 357.967 112.988Z" fill="white"/>
<path d="M390.29 117.916C387.826 122.756 383.91 125.572 378.322 125.572C371.238 125.572 365.386 120.16 365.386 112.988C365.386 105.904 371.282 100.316 378.322 100.316C383.558 100.316 388.31 103.264 390.29 108.192H386.902C385.23 105.024 382.018 103.088 378.41 103.088C372.91 103.088 368.466 107.356 368.466 112.9C368.466 118.488 372.822 122.8 378.41 122.8C381.974 122.8 385.23 121.128 386.902 117.916H390.29Z" fill="white"/>
<path d="M418.866 113.208C418.866 113.516 418.822 113.78 418.822 114.088H396.91C397.13 118.84 401.53 122.8 406.238 122.8C409.934 122.8 413.542 120.688 414.862 117.124H418.118C416.358 122.14 411.606 125.572 406.282 125.572C399.33 125.572 393.742 119.896 393.742 112.988C393.742 106.124 399.33 100.316 406.238 100.316C413.278 100.316 418.866 106.256 418.866 113.208ZM415.698 111.316C414.906 106.608 411.122 103.088 406.282 103.088C401.486 103.088 397.658 106.608 396.91 111.316H415.698Z" fill="white"/>
</g>
</g>
<defs>
<clipPath id="clip0_490_5326">
<rect width="573" height="142" fill="white"/>
</clipPath>
</defs>
</svg>
