<svg width="573" height="142" viewBox="0 0 573 142" fill="none" xmlns="http://www.w3.org/2000/svg">
<g clip-path="url(#clip0_485_5249)">
<path d="M171.813 12.82C175.391 12.8083 178.937 13.5042 182.246 14.8679C185.555 16.2315 188.562 18.2358 191.093 20.7655C193.625 23.2953 195.631 26.3006 196.997 29.6086C198.363 32.9165 199.061 36.4619 199.052 40.0408C199.052 54.9614 186.812 66.9818 171.831 66.9818C156.85 66.9818 144.61 54.952 144.61 40.0408C144.601 36.4651 145.298 32.9227 146.662 29.6172C148.025 26.3117 150.029 23.3081 152.556 20.7788C155.084 18.2495 158.086 16.2444 161.39 14.8786C164.695 13.5128 168.237 12.8132 171.813 12.82ZM171.813 57.9781C181.73 57.9781 189.396 49.5853 189.396 39.9708C189.396 29.9833 181.59 21.8236 171.813 21.8236C162.035 21.8236 154.23 29.9833 154.23 39.9708C154.23 49.6086 161.895 57.9781 171.813 57.9781Z" fill="white"/>
<path d="M204.423 26.8871H213.003V31.4612H213.143C214.637 29.5476 216.563 28.0147 218.763 26.988C220.963 25.9612 223.375 25.4697 225.802 25.5536C238.606 25.5536 245.357 36.5949 245.357 46.2327C245.357 57.7635 236.848 67.2148 225.802 67.2148C219.19 67.2148 216.239 64.543 213.777 62.221V78.9601H204.423V26.8871ZM224.608 58.5934C229.602 58.5934 236.004 54.3737 236.004 46.3586C236.004 39.1827 230.516 34.119 224.748 34.119C218.98 34.119 213.212 38.833 213.212 46.3586C213.212 55.0125 220.179 58.6074 224.608 58.6074V58.5934Z" fill="white"/>
<path d="M258.268 50.5925C258.693 53.1243 262.348 58.6077 269.03 58.6077C273.18 58.6077 276.276 56.8498 278.034 53.6139H287.877C285.624 60.6499 278.169 67.1917 269.025 67.1917C266.309 67.2041 263.618 66.6772 261.108 65.6415C258.597 64.6058 256.317 63.082 254.4 61.1583C252.483 59.2347 250.967 56.9496 249.94 54.4355C248.912 51.9214 248.395 49.2284 248.416 46.5126C248.416 35.4714 256.926 25.3394 268.932 25.3394C281.311 25.3394 289.117 36.0309 289.117 45.8552C289.103 47.4422 288.915 49.0229 288.557 50.5692L258.268 50.5925ZM279.582 43.0669C278.523 36.8282 273.655 33.9234 269.025 33.9234C265.58 33.9234 259.742 35.8211 257.984 43.0669H279.582Z" fill="white"/>
<path d="M294.063 26.8872H302.717V30.263C304.265 28.7896 307.501 25.5537 313.409 25.5537C316.785 25.5537 321.918 27.0271 325.154 30.9671C328.74 35.2568 328.74 41.7985 328.74 44.8246V65.9233H319.387V46.6524C319.387 43.4165 319.387 34.133 311.507 34.133C309.819 34.133 306.797 34.977 305.109 37.5788C303.422 39.9707 303.422 44.0506 303.422 47.3704V65.9233H294.063V26.8872Z" fill="white"/>
<path d="M336.569 13.8782H347.54L369.063 51.7159H369.208V13.8782H378.841V65.9231H368.079L346.347 28.0854H346.207V65.9231H336.569V13.8782Z" fill="white"/>
<path d="M394.675 50.5925C395.095 53.1243 398.755 58.6077 405.436 58.6077C409.586 58.6077 412.682 56.8498 414.44 53.6139H424.288C422.036 60.6499 414.58 67.1917 405.436 67.1917C402.721 67.2041 400.029 66.6772 397.519 65.6415C395.008 64.6058 392.728 63.082 390.811 61.1583C388.894 59.2347 387.378 56.9496 386.351 54.4355C385.323 51.9214 384.806 49.2284 384.827 46.5126C384.827 35.4714 393.337 25.3394 405.343 25.3394C417.723 25.3394 425.528 36.0309 425.528 45.8552C425.515 47.4426 425.326 49.0236 424.964 50.5692L394.675 50.5925ZM415.988 43.0669C414.93 36.8049 410.076 33.9234 405.436 33.9234C401.991 33.9234 396.153 35.8211 394.395 43.0669H415.988Z" fill="white"/>
<path d="M430.251 13.8782H439.605V30.4027C442.873 27.2607 447.241 25.5205 451.774 25.5536C463.66 25.5536 471.4 35.8907 471.4 46.2326C471.4 54.0379 466.271 67.2147 451.984 67.2147C444.459 67.2147 441.153 63.8389 438.831 61.2371V65.9464H430.251V13.8782ZM450.791 58.6074C456.908 58.6074 462.042 53.8981 462.042 46.3025C462.042 38.707 456.558 34.1329 450.651 34.1329C443.475 34.1329 439.045 40.1944 439.045 45.8782C439.045 54.5461 445.303 58.6074 450.791 58.6074Z" fill="white"/>
<path d="M510.58 26.8872V65.9233H502.001V62.0066H501.861C500.313 64.1141 497.781 67.2101 491.804 67.2101C484.698 67.2101 480.688 63.6945 478.72 61.0181C475.834 56.8683 475.834 50.541 475.834 47.3051V26.8872H485.192V46.7922C485.192 49.9582 485.192 58.6075 493.352 58.6075C499.259 58.6075 501.227 53.0542 501.227 46.8622V26.8872H510.58Z" fill="white"/>
<path d="M517.537 13.8782H526.895V65.9231H517.537V13.8782Z" fill="white"/>
<path d="M573 65.9233H564.416V61.0741C561.464 64.5944 555.697 67.1962 550.773 67.1962C540.715 67.1962 531.782 59.1764 531.782 46.1628C531.782 34.2077 540.501 25.5583 551.332 25.5583C559.259 25.5583 563.996 31.2515 564.276 31.8157H564.416V26.8872H573V65.9233ZM552.741 34.133C545.075 34.133 541.135 40.7447 541.135 46.5824C541.135 53.1941 546.059 58.6075 552.741 58.6075C559.212 58.6075 564.136 53.5438 564.136 46.3027C564.141 38.2269 558.312 34.133 552.755 34.133H552.741Z" fill="white"/>
<path d="M35.3706 141.8H110.791C111.232 141.798 111.657 141.63 111.981 141.33C112.164 141.167 112.311 140.967 112.411 140.743C112.511 140.519 112.562 140.275 112.561 140.03V69.9399C82.1258 98.026 42.7427 114.45 1.37061 116.31C3.52433 123.661 8.00058 130.117 14.1295 134.712C20.2585 139.307 27.7105 141.794 35.3706 141.8Z" fill="white"/>
<path d="M112.601 140.03H112.611L112.601 140.02V140.03Z" fill="white"/>
<path d="M110.83 9.41368e-07H110.7C102.766 0.484659 95.2238 3.62074 89.2849 8.90503C83.346 14.1893 79.3543 21.3154 77.9504 29.14C77.8753 29.546 77.6599 29.9127 77.3419 30.1759C77.0238 30.4391 76.6233 30.5822 76.2104 30.58C75.9117 30.5646 75.6222 30.4715 75.3704 30.31L75.2704 30.24C69.0912 26.3097 61.8453 24.3926 54.5309 24.7527C47.2166 25.1128 40.194 27.7324 34.4308 32.2506C28.6675 36.7688 24.4474 42.9633 22.3519 49.9802C20.2564 56.9972 20.3886 64.4913 22.7304 71.43C22.791 71.6139 22.8215 71.8064 22.8204 72C22.8212 72.3557 22.7147 72.7034 22.5149 72.9977C22.3151 73.2921 22.0313 73.5194 21.7004 73.65C13.6927 77.0108 7.19983 83.1978 3.45684 91.0341C-0.286145 98.8704 -1.01802 107.809 1.40042 116.15C30.7975 114.166 58.4209 101.375 78.9501 80.2405C99.4792 59.1058 111.462 31.1223 112.59 1.67999C112.57 1.22722 112.375 0.799833 112.047 0.486878C111.72 0.173923 111.284 -0.000467519 110.83 9.41368e-07Z" fill="white"/>
<path d="M171.985 121.21C169.605 125.585 165.055 128.455 160.05 128.455C152.63 128.455 146.505 122.575 146.505 115.085C146.505 107.525 152.49 101.68 160.015 101.68C163.935 101.68 167.645 103.36 170.235 106.3C170.9 107.035 171.495 107.84 171.88 108.75H168.975C166.98 105.775 163.55 104.025 159.98 104.025C154.03 104.025 149.095 109.24 149.095 115.12C149.095 120.93 154.17 126.11 160.015 126.11C163.76 126.11 166.875 124.15 169.08 121.21H171.985Z" fill="white"/>
<path d="M194.962 118.41C194.962 123.905 190.412 128.455 184.917 128.455C179.527 128.455 174.942 123.94 174.942 118.55C174.942 113.02 179.352 108.365 184.917 108.365C190.377 108.365 194.962 112.95 194.962 118.41ZM192.512 118.305C192.512 114.14 189.152 110.57 184.952 110.57C180.612 110.57 177.392 114.28 177.392 118.515C177.392 122.68 180.717 126.25 184.952 126.25C189.362 126.25 192.512 122.61 192.512 118.305Z" fill="white"/>
<path d="M226.926 128H224.476V116.905C224.476 113.51 223.041 110.57 219.261 110.57C215.481 110.57 214.046 113.51 214.046 116.905V128H211.596V116.905C211.596 113.51 210.161 110.57 206.381 110.57C202.601 110.57 201.166 113.51 201.166 116.905V128H198.716V108.855H201.166V111.06C202.321 109.24 204.281 108.365 206.381 108.365C209.111 108.365 211.491 109.66 212.821 112.04C214.291 109.695 216.461 108.365 219.261 108.365C224.161 108.365 226.926 111.935 226.926 116.625V128Z" fill="white"/>
<path d="M259.773 128H257.323V116.905C257.323 113.51 255.888 110.57 252.108 110.57C248.328 110.57 246.893 113.51 246.893 116.905V128H244.443V116.905C244.443 113.51 243.008 110.57 239.228 110.57C235.448 110.57 234.013 113.51 234.013 116.905V128H231.563V108.855H234.013V111.06C235.168 109.24 237.128 108.365 239.228 108.365C241.958 108.365 244.338 109.66 245.668 112.04C247.138 109.695 249.308 108.365 252.108 108.365C257.008 108.365 259.773 111.935 259.773 116.625V128Z" fill="white"/>
<path d="M281.034 128H278.724V125.025H278.654C277.534 127.37 275.049 128.455 272.529 128.455C270.044 128.455 267.524 127.58 265.949 125.585C264.584 123.87 264.27 121.56 264.27 119.425V108.855H266.719V119.39C266.719 123.345 268.154 126.25 272.529 126.25C274.139 126.25 275.399 125.83 276.589 124.71C278.269 123.1 278.584 121.21 278.584 118.97V108.855H281.034V128Z" fill="white"/>
<path d="M302.503 128H300.053V117.465C300.053 115.645 299.598 113.51 298.233 112.215C297.113 111.165 295.608 110.57 294.068 110.57C292.528 110.57 291.023 111.165 289.903 112.215C288.573 113.475 288.118 115.54 288.118 117.29V128H285.668V108.855H288.118V111.305H288.188C289.448 109.345 291.793 108.365 294.068 108.365C299.563 108.365 302.503 112.18 302.503 117.465V128Z" fill="white"/>
<path d="M309.481 106.51H307.031V102.1H309.481V106.51ZM309.481 128H307.031V108.855H309.481V128Z" fill="white"/>
<path d="M323.313 111.06H318.728V128H316.278V111.06H312.253V108.855H316.278V102.1H318.728V108.855H323.313V111.06Z" fill="white"/>
<path d="M341.928 108.855L330.833 134.72H328.278L331.603 127.37L324.148 108.855H326.738L332.828 124.115L339.338 108.855H341.928Z" fill="white"/>
<path d="M381.6 128H379.01V104.935H378.94L369.245 128H367.04L357.415 104.935H357.345V128H354.755V102.1H358.745L368.16 124.15L377.61 102.1H381.6V128Z" fill="white"/>
<path d="M405.993 128H403.543V124.64H403.473C401.793 127.16 398.993 128.455 396.018 128.455C390.278 128.455 385.728 124.15 385.728 118.375C385.728 112.635 390.383 108.365 396.018 108.365C399.028 108.365 401.828 109.625 403.473 112.215H403.543V108.855H405.993V128ZM403.683 118.445C403.683 114.175 400.358 110.57 396.018 110.57C391.468 110.57 388.178 113.965 388.178 118.48C388.178 122.96 391.538 126.25 396.018 126.25C400.358 126.25 403.683 122.715 403.683 118.445Z" fill="white"/>
<path d="M418.334 110.955C414.974 111.235 412.874 113.37 412.874 116.8V128H410.424V108.855H412.874V111.62H412.944C413.994 109.17 415.849 108.54 418.334 108.365V110.955Z" fill="white"/>
<path d="M437.132 128H433.982L427.682 120.44L424.602 124.36V128H422.152V102.1H424.602V120.545H424.672L433.597 108.855H436.747L429.187 118.515L437.132 128Z" fill="white"/>
<path d="M457.902 118.62C457.902 118.865 457.867 119.075 457.867 119.32H440.437C440.612 123.1 444.112 126.25 447.857 126.25C450.797 126.25 453.667 124.57 454.717 121.735H457.307C455.907 125.725 452.127 128.455 447.892 128.455C442.362 128.455 437.917 123.94 437.917 118.445C437.917 112.985 442.362 108.365 447.857 108.365C453.457 108.365 457.902 113.09 457.902 118.62ZM455.382 117.115C454.752 113.37 451.742 110.57 447.892 110.57C444.077 110.57 441.032 113.37 440.437 117.115H455.382Z" fill="white"/>
<path d="M470.9 111.06H466.315V128H463.865V111.06H459.84V108.855H463.865V102.1H466.315V108.855H470.9V111.06Z" fill="white"/>
<path d="M493.716 118.375C493.716 124.15 489.166 128.455 483.426 128.455C480.451 128.455 477.651 127.09 475.971 124.64H475.901V134.72H473.451V108.855H475.901V112.215H475.971C477.721 109.73 480.416 108.365 483.426 108.365C489.061 108.365 493.716 112.635 493.716 118.375ZM491.266 118.48C491.266 113.965 487.976 110.57 483.426 110.57C479.086 110.57 475.761 114.175 475.761 118.445C475.761 122.715 479.086 126.25 483.426 126.25C487.906 126.25 491.266 122.96 491.266 118.48Z" fill="white"/>
<path d="M499.793 128H497.343V102.1H499.793V128Z" fill="white"/>
<path d="M523.81 128H521.36V124.64H521.29C519.61 127.16 516.81 128.455 513.835 128.455C508.095 128.455 503.545 124.15 503.545 118.375C503.545 112.635 508.2 108.365 513.835 108.365C516.845 108.365 519.645 109.625 521.29 112.215H521.36V108.855H523.81V128ZM521.5 118.445C521.5 114.175 518.175 110.57 513.835 110.57C509.285 110.57 505.995 113.965 505.995 118.48C505.995 122.96 509.355 126.25 513.835 126.25C518.175 126.25 521.5 122.715 521.5 118.445Z" fill="white"/>
<path d="M547.212 122.365C545.252 126.215 542.137 128.455 537.692 128.455C532.057 128.455 527.402 124.15 527.402 118.445C527.402 112.81 532.092 108.365 537.692 108.365C541.857 108.365 545.637 110.71 547.212 114.63H544.517C543.187 112.11 540.632 110.57 537.762 110.57C533.387 110.57 529.852 113.965 529.852 118.375C529.852 122.82 533.317 126.25 537.762 126.25C540.597 126.25 543.187 124.92 544.517 122.365H547.212Z" fill="white"/>
<path d="M569.943 118.62C569.943 118.865 569.908 119.075 569.908 119.32H552.478C552.653 123.1 556.153 126.25 559.898 126.25C562.838 126.25 565.708 124.57 566.758 121.735H569.348C567.948 125.725 564.168 128.455 559.933 128.455C554.403 128.455 549.958 123.94 549.958 118.445C549.958 112.985 554.403 108.365 559.898 108.365C565.498 108.365 569.943 113.09 569.943 118.62ZM567.423 117.115C566.793 113.37 563.783 110.57 559.933 110.57C556.118 110.57 553.073 113.37 552.478 117.115H567.423Z" fill="white"/>
</g>
<defs>
<clipPath id="clip0_485_5249">
<rect width="573" height="142" fill="white"/>
</clipPath>
</defs>
</svg>
