<?xml version="1.0" encoding="UTF-8" standalone="no"?>
<svg
   width="162"
   height="41"
   viewBox="0 0 162 41"
   fill="none"
   version="1.1"
   id="svg442"
   sodipodi:docname="logo-opennebula.svg"
   inkscape:version="1.1.2 (0a00cf5339, 2022-02-04)"
   xmlns:inkscape="http://www.inkscape.org/namespaces/inkscape"
   xmlns:sodipodi="http://sodipodi.sourceforge.net/DTD/sodipodi-0.dtd"
   xmlns="http://www.w3.org/2000/svg"
   xmlns:svg="http://www.w3.org/2000/svg">
  <sodipodi:namedview
     id="namedview444"
     pagecolor="#ffffff"
     bordercolor="#666666"
     borderopacity="1.0"
     inkscape:pageshadow="2"
     inkscape:pageopacity="0"
     inkscape:pagecheckerboard="0"
     showgrid="false"
     inkscape:zoom="8.2592593"
     inkscape:cx="80.939462"
     inkscape:cy="20.461883"
     inkscape:window-width="2504"
     inkscape:window-height="1403"
     inkscape:window-x="1976"
     inkscape:window-y="0"
     inkscape:window-maximized="1"
     inkscape:current-layer="g435" />
  <g
     clip-path="url(#clip0_92_3939)"
     id="g435">
    <path
       d="M48.5754 3.62455C49.587 3.62124 50.5896 3.81799 51.5251 4.20354C52.4606 4.58906 53.3108 5.15572 54.0263 5.87092C54.7422 6.58616 55.3093 7.43582 55.6955 8.37107C56.0817 9.30629 56.2791 10.3086 56.2765 11.3205C56.2765 15.5389 52.816 18.9373 48.5805 18.9373C44.3451 18.9373 40.8845 15.5362 40.8845 11.3205C40.882 10.3096 41.0791 9.30804 41.4647 8.3735C41.85 7.43896 42.4166 6.58977 43.1311 5.87468C43.8458 5.15959 44.6945 4.59271 45.6286 4.20657C46.563 3.82042 47.5644 3.62263 48.5754 3.62455ZM48.5754 16.3918C51.3792 16.3918 53.5466 14.0189 53.5466 11.3007C53.5466 8.477 51.3396 6.17007 48.5754 6.17007C45.811 6.17007 43.6043 8.477 43.6043 11.3007C43.6043 14.0255 45.7714 16.3918 48.5754 16.3918Z"
       fill="white"
       id="path369" />
    <path
       d="M57.7949 7.60153H60.2207V8.89473H60.2603C60.6826 8.35372 61.2272 7.92033 61.8492 7.63006C62.4712 7.33976 63.1531 7.2008 63.8392 7.22452C67.4592 7.22452 69.3679 10.3461 69.3679 13.071C69.3679 16.331 66.9622 19.0031 63.8392 19.0031C61.9699 19.0031 61.1356 18.2477 60.4395 17.5912V22.3237H57.7949V7.60153ZM63.5017 16.5656C64.9136 16.5656 66.7236 15.3726 66.7236 13.1066C66.7236 11.0778 65.172 9.64615 63.5413 9.64615C61.9105 9.64615 60.2798 10.9789 60.2798 13.1066C60.2798 15.5532 62.2495 16.5696 63.5017 16.5696V16.5656Z"
       fill="white"
       id="path371" />
    <path
       d="M73.0182 14.3034C73.1384 15.0192 74.1717 16.5695 76.0609 16.5695C77.2342 16.5695 78.1095 16.0725 78.6065 15.1577H81.3894C80.7524 17.1469 78.6447 18.9964 76.0595 18.9964C75.2916 18.9999 74.5308 18.8509 73.8212 18.5581C73.1112 18.2653 72.4666 17.8345 71.9246 17.2906C71.3827 16.7468 70.9541 16.1007 70.6637 15.3899C70.3731 14.6791 70.2269 13.9178 70.2328 13.15C70.2328 10.0284 72.6388 7.16382 76.0332 7.16382C79.533 7.16382 81.7399 10.1865 81.7399 12.9641C81.736 13.4128 81.6828 13.8597 81.5816 14.2969L73.0182 14.3034ZM79.0442 12.1758C78.7448 10.412 77.3685 9.59071 76.0595 9.59071C75.0855 9.59071 73.435 10.1272 72.9379 12.1758H79.0442Z"
       fill="white"
       id="path373" />
    <path
       d="M83.1382 7.60162H85.5849V8.55603C86.0225 8.13947 86.9374 7.22461 88.6077 7.22461C89.5622 7.22461 91.0134 7.64117 91.9283 8.7551C92.9422 9.96789 92.9422 11.8174 92.9422 12.6729V18.638H90.2979V13.1897C90.2979 12.2748 90.2978 9.65017 88.07 9.65017C87.5928 9.65017 86.7384 9.88879 86.2611 10.6244C85.7842 11.3006 85.7842 12.4541 85.7842 13.3927V18.638H83.1382V7.60162Z"
       fill="white"
       id="path375" />
    <path
       d="M95.1558 3.92358H98.2575L104.343 14.6212H104.384V3.92358H107.107V18.6378H104.064L97.9202 7.94028H97.8806V18.6378H95.1558V3.92358Z"
       fill="white"
       id="path377" />
    <path
       d="M111.583 14.3034C111.702 15.0192 112.737 16.5695 114.626 16.5695C115.799 16.5695 116.674 16.0725 117.172 15.1577H119.956C119.319 17.1469 117.211 18.9964 114.626 18.9964C113.858 18.9999 113.097 18.8509 112.388 18.5581C111.678 18.2653 111.033 17.8345 110.491 17.2906C109.949 16.7468 109.52 16.1007 109.23 15.3899C108.939 14.6791 108.793 13.9178 108.799 13.15C108.799 10.0284 111.205 7.16382 114.6 7.16382C118.1 7.16382 120.306 10.1865 120.306 12.9641C120.303 13.4129 120.249 13.8599 120.147 14.2969L111.583 14.3034ZM117.609 12.1758C117.31 10.4054 115.938 9.59071 114.626 9.59071C113.652 9.59071 112.001 10.1272 111.504 12.1758H117.609Z"
       fill="white"
       id="path379" />
    <path
       d="M121.642 3.92358H124.286V8.59543C125.21 7.70712 126.445 7.21512 127.727 7.22448C131.087 7.22448 133.275 10.147 133.275 13.0709C133.275 15.2776 131.825 19.003 127.786 19.003C125.659 19.003 124.724 18.0486 124.067 17.313V18.6444H121.642V3.92358ZM127.449 16.5695C129.178 16.5695 130.63 15.2381 130.63 13.0907C130.63 10.9432 129.079 9.65004 127.409 9.65004C125.38 9.65004 124.128 11.3638 124.128 12.9707C124.128 15.4213 125.897 16.5695 127.449 16.5695Z"
       fill="white"
       id="path381" />
    <path
       d="M144.353 7.60181V18.6382H141.927V17.5309H141.887C141.45 18.1267 140.734 19.002 139.044 19.002C137.035 19.002 135.901 18.0081 135.345 17.2514C134.529 16.0781 134.529 14.2893 134.529 13.3744V7.60181H137.175V13.2294C137.175 14.1245 137.175 16.5698 139.482 16.5698C141.152 16.5698 141.708 14.9998 141.708 13.2492V7.60181H144.353Z"
       fill="white"
       id="path383" />
    <path
       d="M146.319 3.92358H148.965V18.6378H146.319V3.92358Z"
       fill="white"
       id="path385" />
    <path
       d="M162 18.6379H159.573V17.2669C158.738 18.2622 157.108 18.9978 155.716 18.9978C152.872 18.9978 150.347 16.7304 150.347 13.0512C150.347 9.67121 152.812 7.22583 155.874 7.22583C158.115 7.22583 159.454 8.83543 159.533 8.99494H159.573V7.60154H162V18.6379ZM156.272 9.65009C154.105 9.65009 152.991 11.5194 152.991 13.1698C152.991 15.0391 154.383 16.5696 156.272 16.5696C158.102 16.5696 159.494 15.138 159.494 13.0907C159.495 10.8075 157.847 9.65009 156.276 9.65009H156.272Z"
       fill="white"
       id="path387" />
    <path
       d="M10 40.0901H31.3231C31.4477 40.0896 31.5679 40.0421 31.6595 39.9573C31.7112 39.9112 31.7528 39.8546 31.7811 39.7913C31.8093 39.728 31.8238 39.659 31.8235 39.5897V19.7737C23.2188 27.7143 12.0843 32.3577 0.387451 32.8836C0.996356 34.9618 2.26189 36.7871 3.99468 38.0862C5.72748 39.3853 7.83433 40.0885 10 40.0901Z"
       fill="white"
       id="path389" />
    <path
       d="M31.835 39.5903H31.8384L31.835 39.5869V39.5903Z"
       fill="white"
       id="path391" />
    <path
       d="M31.3341 2.66146e-07H31.2974C29.0543 0.137024 26.9219 1.02366 25.2429 2.51765C23.5638 4.01163 22.4352 6.02634 22.0383 8.23853C22.0171 8.35332 21.9562 8.45699 21.8663 8.53141C21.7764 8.60582 21.6631 8.64628 21.5464 8.64565C21.4619 8.6413 21.3801 8.61498 21.3089 8.56932L21.2806 8.54953C19.5336 7.43834 17.4851 6.89634 15.4171 6.99815C13.3492 7.09995 11.3637 7.84057 9.73436 9.11797C8.10495 10.3954 6.91183 12.1467 6.31939 14.1305C5.72694 16.1144 5.76432 18.2331 6.4264 20.1949C6.44353 20.2469 6.45215 20.3013 6.45184 20.356C6.45207 20.4566 6.42196 20.5549 6.36547 20.6381C6.30898 20.7213 6.22874 20.7856 6.13519 20.8225C3.87123 21.7727 2.03555 23.5219 0.977326 25.7374C-0.0808996 27.9529 -0.287818 30.48 0.39593 32.8382C8.70715 32.2773 16.5169 28.661 22.321 22.6858C28.125 16.7105 31.5128 8.79898 31.8317 0.474971C31.8261 0.346963 31.7709 0.226131 31.6782 0.137651C31.5858 0.049172 31.4625 -0.000132178 31.3341 2.66146e-07Z"
       fill="white"
       id="path393" />
    <path
       d="m 49.288616,36.1885 h -0.732 v -6.521 h -0.02 l -2.741,6.521 h -0.623 l -2.722,-6.521 h -0.019 v 6.521 h -0.733 V 28.866 h 1.128 l 2.662,6.234 2.672,-6.234 h 1.128 z"
       fill="#ffffff"
       id="path413" />
    <path
       d="m 56.184616,36.1885 h -0.692 v -0.95 h -0.02 c -0.475,0.7125 -1.267,1.0786 -2.108,1.0786 -1.623,0 -2.909,-1.2171 -2.909,-2.8498 0,-1.6229 1.316,-2.8301 2.909,-2.8301 0.851,0 1.643,0.3562 2.108,1.0885 h 0.02 v -0.95 h 0.692 z m -0.653,-2.7014 c 0,-1.2073 -0.94,-2.2265 -2.167,-2.2265 -1.286,0 -2.216,0.9599 -2.216,2.2363 0,1.2666 0.95,2.1968 2.216,2.1968 1.227,0 2.167,-0.9994 2.167,-2.2066 z"
       fill="#ffffff"
       id="path415" />
    <path
       d="m 59.673616,31.3695 c -0.949,0.0791 -1.543,0.6827 -1.543,1.6525 v 3.1665 h -0.693 v -5.4128 h 0.693 v 0.7818 h 0.02 c 0.296,-0.6927 0.821,-0.8708 1.523,-0.9203 z"
       fill="#ffffff"
       id="path417" />
    <path
       d="m 64.988616,36.1885 h -0.891 l -1.781,-2.1374 -0.871,1.1083 v 1.0291 h -0.692 V 28.866 h 0.692 v 5.2148 h 0.02 l 2.524,-3.305 h 0.89 l -2.137,2.7311 z"
       fill="#ffffff"
       id="path419" />
    <path
       d="m 70.860616,33.5365 c 0,0.0693 -0.01,0.1287 -0.01,0.1979 h -4.927 c 0.049,1.0687 1.039,1.9593 2.097,1.9593 0.832,0 1.643,-0.475 1.94,-1.2765 h 0.732 c -0.396,1.1281 -1.464,1.8999 -2.662,1.8999 -1.563,0 -2.82,-1.2765 -2.82,-2.83 0,-1.5437 1.257,-2.8499 2.81,-2.8499 1.584,0 2.84,1.3359 2.84,2.8993 z m -0.712,-0.4255 c -0.178,-1.0588 -1.029,-1.8504 -2.118,-1.8504 -1.078,0 -1.939,0.7916 -2.107,1.8504 z"
       fill="#ffffff"
       id="path421" />
    <path
       d="m 74.535616,31.3992 h -1.296 v 4.7893 h -0.693 v -4.7893 h -1.138 v -0.6234 h 1.138 V 28.866 h 0.693 v 1.9098 h 1.296 z"
       fill="#ffffff"
       id="path423" />
    <path
       d="m 80.986616,33.4673 c 0,1.6327 -1.287,2.8498 -2.91,2.8498 -0.841,0 -1.632,-0.3859 -2.107,-1.0786 h -0.02 v 2.8499 h -0.693 v -7.3127 h 0.693 v 0.95 h 0.02 c 0.494,-0.7026 1.256,-1.0885 2.107,-1.0885 1.594,0 2.91,1.2072 2.91,2.8301 z m -0.693,0.0296 c 0,-1.2764 -0.93,-2.2363 -2.217,-2.2363 -1.227,0 -2.167,1.0192 -2.167,2.2265 0,1.2072 0.94,2.2066 2.167,2.2066 1.267,0 2.217,-0.9302 2.217,-2.1968 z"
       fill="#ffffff"
       id="path425" />
    <path
       d="m 82.704616,36.1885 h -0.693 V 28.866 h 0.693 z"
       fill="#ffffff"
       id="path427" />
    <path
       d="m 89.494616,36.1885 h -0.693 v -0.95 h -0.02 c -0.475,0.7125 -1.266,1.0786 -2.107,1.0786 -1.623,0 -2.909,-1.2171 -2.909,-2.8498 0,-1.6229 1.316,-2.8301 2.909,-2.8301 0.851,0 1.642,0.3562 2.107,1.0885 h 0.02 v -0.95 h 0.693 z m -0.653,-2.7014 c 0,-1.2073 -0.94,-2.2265 -2.167,-2.2265 -1.287,0 -2.217,0.9599 -2.217,2.2363 0,1.2666 0.95,2.1968 2.217,2.1968 1.227,0 2.167,-0.9994 2.167,-2.2066 z"
       fill="#ffffff"
       id="path429" />
    <path
       d="m 96.110616,34.5953 c -0.554,1.0885 -1.435,1.7218 -2.691,1.7218 -1.594,0 -2.91,-1.2171 -2.91,-2.83 0,-1.5932 1.326,-2.8499 2.91,-2.8499 1.177,0 2.246,0.663 2.691,1.7713 h -0.762 c -0.376,-0.7125 -1.098,-1.1479 -1.91,-1.1479 -1.236,0 -2.236,0.9599 -2.236,2.2067 0,1.2567 0.98,2.2264 2.236,2.2264 0.802,0 1.534,-0.376 1.91,-1.0984 z"
       fill="#ffffff"
       id="path431" />
    <path
       d="m 102.53762,33.5365 c 0,0.0693 -0.01,0.1287 -0.01,0.1979 h -4.928004 c 0.05,1.0687 1.039,1.9593 2.098,1.9593 0.831004,0 1.642004,-0.475 1.939004,-1.2765 h 0.733 c -0.396,1.1281 -1.465,1.8999 -2.662004,1.8999 -1.564,0 -2.82,-1.2765 -2.82,-2.83 0,-1.5437 1.256,-2.8499 2.81,-2.8499 1.583004,0 2.840004,1.3359 2.840004,2.8993 z m -0.713,-0.4255 c -0.178,-1.0588 -1.029,-1.8504 -2.117004,-1.8504 -1.079,0 -1.94,0.7916 -2.108,1.8504 z"
       fill="#ffffff"
       id="path433" />
  </g>
  <defs
     id="defs440">
    <clipPath
       id="clip0_92_3939">
      <rect
         width="162"
         height="40.1466"
         fill="white"
         id="rect437" />
    </clipPath>
  </defs>
</svg>
