<svg xmlns="http://www.w3.org/2000/svg" width="162" height="41" viewBox="0 0 162 41" fill="none">
  <g clip-path="url(#clip0_92_3939)">
    <path d="M48.5754 3.62455C49.587 3.62124 50.5896 3.81799 51.5251 4.20354C52.4606 4.58906 53.3108 5.15572 54.0263 5.87092C54.7422 6.58616 55.3093 7.43582 55.6955 8.37107C56.0817 9.30629 56.2791 10.3086 56.2765 11.3205C56.2765 15.5389 52.816 18.9373 48.5805 18.9373C44.3451 18.9373 40.8845 15.5362 40.8845 11.3205C40.882 10.3096 41.0791 9.30804 41.4647 8.3735C41.85 7.43896 42.4166 6.58977 43.1311 5.87468C43.8458 5.15959 44.6945 4.59271 45.6286 4.20657C46.563 3.82042 47.5644 3.62263 48.5754 3.62455ZM48.5754 16.3918C51.3792 16.3918 53.5466 14.0189 53.5466 11.3007C53.5466 8.477 51.3396 6.17007 48.5754 6.17007C45.811 6.17007 43.6043 8.477 43.6043 11.3007C43.6043 14.0255 45.7714 16.3918 48.5754 16.3918Z" fill="white"/>
    <path d="M57.7949 7.60153H60.2207V8.89473H60.2603C60.6826 8.35372 61.2272 7.92033 61.8492 7.63006C62.4712 7.33976 63.1531 7.2008 63.8392 7.22452C67.4592 7.22452 69.3679 10.3461 69.3679 13.071C69.3679 16.331 66.9622 19.0031 63.8392 19.0031C61.9699 19.0031 61.1356 18.2477 60.4395 17.5912V22.3237H57.7949V7.60153ZM63.5017 16.5656C64.9136 16.5656 66.7236 15.3726 66.7236 13.1066C66.7236 11.0778 65.172 9.64615 63.5413 9.64615C61.9105 9.64615 60.2798 10.9789 60.2798 13.1066C60.2798 15.5532 62.2495 16.5696 63.5017 16.5696V16.5656Z" fill="white"/>
    <path d="M73.0182 14.3034C73.1384 15.0192 74.1717 16.5695 76.0609 16.5695C77.2342 16.5695 78.1095 16.0725 78.6065 15.1577H81.3894C80.7524 17.1469 78.6447 18.9964 76.0595 18.9964C75.2916 18.9999 74.5308 18.8509 73.8212 18.5581C73.1112 18.2653 72.4666 17.8345 71.9246 17.2906C71.3827 16.7468 70.9541 16.1007 70.6637 15.3899C70.3731 14.6791 70.2269 13.9178 70.2328 13.15C70.2328 10.0284 72.6388 7.16382 76.0332 7.16382C79.533 7.16382 81.7399 10.1865 81.7399 12.9641C81.736 13.4128 81.6828 13.8597 81.5816 14.2969L73.0182 14.3034ZM79.0442 12.1758C78.7448 10.412 77.3685 9.59071 76.0595 9.59071C75.0855 9.59071 73.435 10.1272 72.9379 12.1758H79.0442Z" fill="white"/>
    <path d="M83.1382 7.60162H85.5849V8.55603C86.0225 8.13947 86.9374 7.22461 88.6077 7.22461C89.5622 7.22461 91.0134 7.64117 91.9283 8.7551C92.9422 9.96789 92.9422 11.8174 92.9422 12.6729V18.638H90.2979V13.1897C90.2979 12.2748 90.2978 9.65017 88.07 9.65017C87.5928 9.65017 86.7384 9.88879 86.2611 10.6244C85.7842 11.3006 85.7842 12.4541 85.7842 13.3927V18.638H83.1382V7.60162Z" fill="white"/>
    <path d="M95.1558 3.92358H98.2575L104.343 14.6212H104.384V3.92358H107.107V18.6378H104.064L97.9202 7.94028H97.8806V18.6378H95.1558V3.92358Z" fill="white"/>
    <path d="M111.583 14.3034C111.702 15.0192 112.737 16.5695 114.626 16.5695C115.799 16.5695 116.674 16.0725 117.172 15.1577H119.956C119.319 17.1469 117.211 18.9964 114.626 18.9964C113.858 18.9999 113.097 18.8509 112.388 18.5581C111.678 18.2653 111.033 17.8345 110.491 17.2906C109.949 16.7468 109.52 16.1007 109.23 15.3899C108.939 14.6791 108.793 13.9178 108.799 13.15C108.799 10.0284 111.205 7.16382 114.6 7.16382C118.1 7.16382 120.306 10.1865 120.306 12.9641C120.303 13.4129 120.249 13.8599 120.147 14.2969L111.583 14.3034ZM117.609 12.1758C117.31 10.4054 115.938 9.59071 114.626 9.59071C113.652 9.59071 112.001 10.1272 111.504 12.1758H117.609Z" fill="white"/>
    <path d="M121.642 3.92358H124.286V8.59543C125.21 7.70712 126.445 7.21512 127.727 7.22448C131.087 7.22448 133.275 10.147 133.275 13.0709C133.275 15.2776 131.825 19.003 127.786 19.003C125.659 19.003 124.724 18.0486 124.067 17.313V18.6444H121.642V3.92358ZM127.449 16.5695C129.178 16.5695 130.63 15.2381 130.63 13.0907C130.63 10.9432 129.079 9.65004 127.409 9.65004C125.38 9.65004 124.128 11.3638 124.128 12.9707C124.128 15.4213 125.897 16.5695 127.449 16.5695Z" fill="white"/>
    <path d="M144.353 7.60181V18.6382H141.927V17.5309H141.887C141.45 18.1267 140.734 19.002 139.044 19.002C137.035 19.002 135.901 18.0081 135.345 17.2514C134.529 16.0781 134.529 14.2893 134.529 13.3744V7.60181H137.175V13.2294C137.175 14.1245 137.175 16.5698 139.482 16.5698C141.152 16.5698 141.708 14.9998 141.708 13.2492V7.60181H144.353Z" fill="white"/>
    <path d="M146.319 3.92358H148.965V18.6378H146.319V3.92358Z" fill="white"/>
    <path d="M162 18.6379H159.573V17.2669C158.738 18.2622 157.108 18.9978 155.716 18.9978C152.872 18.9978 150.347 16.7304 150.347 13.0512C150.347 9.67121 152.812 7.22583 155.874 7.22583C158.115 7.22583 159.454 8.83543 159.533 8.99494H159.573V7.60154H162V18.6379ZM156.272 9.65009C154.105 9.65009 152.991 11.5194 152.991 13.1698C152.991 15.0391 154.383 16.5696 156.272 16.5696C158.102 16.5696 159.494 15.138 159.494 13.0907C159.495 10.8075 157.847 9.65009 156.276 9.65009H156.272Z" fill="white"/>
    <path d="M10 40.0901H31.3231C31.4477 40.0896 31.5679 40.0421 31.6595 39.9573C31.7112 39.9112 31.7528 39.8546 31.7811 39.7913C31.8093 39.728 31.8238 39.659 31.8235 39.5897V19.7737C23.2188 27.7143 12.0843 32.3577 0.387451 32.8836C0.996356 34.9618 2.26189 36.7871 3.99468 38.0862C5.72748 39.3853 7.83433 40.0885 10 40.0901Z" fill="white"/>
    <path d="M31.835 39.5903H31.8384L31.835 39.5869V39.5903Z" fill="white"/>
    <path d="M31.3341 2.66146e-07H31.2974C29.0543 0.137024 26.9219 1.02366 25.2429 2.51765C23.5638 4.01163 22.4352 6.02634 22.0383 8.23853C22.0171 8.35332 21.9562 8.45699 21.8663 8.53141C21.7764 8.60582 21.6631 8.64628 21.5464 8.64565C21.4619 8.6413 21.3801 8.61498 21.3089 8.56932L21.2806 8.54953C19.5336 7.43834 17.4851 6.89634 15.4171 6.99815C13.3492 7.09995 11.3637 7.84057 9.73436 9.11797C8.10495 10.3954 6.91183 12.1467 6.31939 14.1305C5.72694 16.1144 5.76432 18.2331 6.4264 20.1949C6.44353 20.2469 6.45215 20.3013 6.45184 20.356C6.45207 20.4566 6.42196 20.5549 6.36547 20.6381C6.30898 20.7213 6.22874 20.7856 6.13519 20.8225C3.87123 21.7727 2.03555 23.5219 0.977326 25.7374C-0.0808996 27.9529 -0.287818 30.48 0.39593 32.8382C8.70715 32.2773 16.5169 28.661 22.321 22.6858C28.125 16.7105 31.5128 8.79898 31.8317 0.474971C31.8261 0.346963 31.7709 0.226131 31.6782 0.137651C31.5858 0.049172 31.4625 -0.000132178 31.3341 2.66146e-07Z" fill="white"/>
    <path d="M48.6239 34.2689C47.9511 35.5058 46.6647 36.3172 45.2496 36.3172C43.1518 36.3172 41.4202 34.6548 41.4202 32.5372C41.4202 30.3998 43.1123 28.7473 45.2397 28.7473C46.348 28.7473 47.3969 29.2223 48.1292 30.0535C48.3172 30.2613 48.4854 30.4889 48.5943 30.7462H47.7729C47.2089 29.9051 46.2392 29.4103 45.2298 29.4103C43.5477 29.4103 42.1524 30.8847 42.1524 32.5471C42.1524 34.1897 43.5872 35.6542 45.2397 35.6542C46.2985 35.6542 47.1792 35.1001 47.8026 34.2689H48.6239Z" fill="white"/>
    <path d="M55.1201 33.4772C55.1201 35.0307 53.8337 36.3171 52.2801 36.3171C50.7562 36.3171 49.46 35.0406 49.46 33.5167C49.46 31.9533 50.7068 30.6372 52.2801 30.6372C53.8238 30.6372 55.1201 31.9335 55.1201 33.4772ZM54.4274 33.4475C54.4274 32.2699 53.4774 31.2606 52.29 31.2606C51.063 31.2606 50.1526 32.3095 50.1526 33.5068C50.1526 34.6844 51.0927 35.6937 52.29 35.6937C53.5368 35.6937 54.4274 34.6646 54.4274 33.4475Z" fill="white"/>
    <path d="M64.1572 36.1885H63.4646V33.0517C63.4646 32.0918 63.0589 31.2606 61.9902 31.2606C60.9215 31.2606 60.5158 32.0918 60.5158 33.0517V36.1885H59.8231V33.0517C59.8231 32.0918 59.4174 31.2606 58.3487 31.2606C57.28 31.2606 56.8743 32.0918 56.8743 33.0517V36.1885H56.1816V30.7757H56.8743V31.3991C57.2009 30.8846 57.755 30.6372 58.3487 30.6372C59.1205 30.6372 59.7934 31.0033 60.1694 31.6762C60.585 31.0132 61.1986 30.6372 61.9902 30.6372C63.3755 30.6372 64.1572 31.6465 64.1572 32.9725V36.1885Z" fill="white"/>
    <path d="M73.4436 36.1885H72.7509V33.0517C72.7509 32.0918 72.3452 31.2606 71.2766 31.2606C70.2079 31.2606 69.8022 32.0918 69.8022 33.0517V36.1885H69.1095V33.0517C69.1095 32.0918 68.7038 31.2606 67.6351 31.2606C66.5664 31.2606 66.1607 32.0918 66.1607 33.0517V36.1885H65.468V30.7757H66.1607V31.3991C66.4872 30.8846 67.0414 30.6372 67.6351 30.6372C68.4069 30.6372 69.0798 31.0033 69.4558 31.6762C69.8714 31.0132 70.4849 30.6372 71.2766 30.6372C72.6619 30.6372 73.4436 31.6465 73.4436 32.9725V36.1885Z" fill="white"/>
    <path d="M79.4546 36.1884H78.8016V35.3473H78.7818C78.4651 36.0102 77.7626 36.317 77.0501 36.317C76.3475 36.317 75.6351 36.0696 75.1898 35.5056C74.8039 35.0207 74.7151 34.3676 74.7151 33.764V30.7756H75.4075V33.7541C75.4075 34.8723 75.8132 35.6936 77.0501 35.6936C77.5053 35.6936 77.8615 35.5748 78.1979 35.2582C78.6729 34.803 78.762 34.2687 78.762 33.6354V30.7756H79.4546V36.1884Z" fill="white"/>
    <path d="M85.5243 36.1885H84.8316V33.21C84.8316 32.6954 84.703 32.0918 84.3171 31.7257C84.0004 31.4288 83.5749 31.2606 83.1395 31.2606C82.7041 31.2606 82.2786 31.4288 81.962 31.7257C81.586 32.0819 81.4573 32.6657 81.4573 33.1605V36.1885H80.7646V30.7757H81.4573V31.4684H81.4771C81.8333 30.9143 82.4963 30.6372 83.1395 30.6372C84.6931 30.6372 85.5243 31.7158 85.5243 33.21V36.1885Z" fill="white"/>
    <path d="M87.4974 30.1128H86.8047V28.866H87.4974V30.1128ZM87.4974 36.1885H86.8047V30.7758H87.4974V36.1885Z" fill="white"/>
    <path d="M91.4079 31.3992H90.1116V36.1885H89.419V31.3992H88.281V30.7758H89.419V28.866H90.1116V30.7758H91.4079V31.3992Z" fill="white"/>
    <path d="M96.6708 30.7756L93.534 38.0883H92.8117L93.7517 36.0102L91.644 30.7756H92.3763L94.0981 35.09L95.9386 30.7756H96.6708Z" fill="white"/>
    <path d="M107.887 36.1885H107.155V29.6675H107.135L104.394 36.1885H103.771L101.049 29.6675H101.03V36.1885H100.297V28.866H101.425L104.087 35.1L106.759 28.866H107.887V36.1885Z" fill="white"/>
    <path d="M114.783 36.1885H114.091V35.2385H114.071C113.596 35.951 112.804 36.3171 111.963 36.3171C110.34 36.3171 109.054 35.1 109.054 33.4673C109.054 31.8444 110.37 30.6372 111.963 30.6372C112.814 30.6372 113.606 30.9934 114.071 31.7257H114.091V30.7757H114.783V36.1885ZM114.13 33.4871C114.13 32.2798 113.19 31.2606 111.963 31.2606C110.677 31.2606 109.747 32.2205 109.747 33.4969C109.747 34.7635 110.697 35.6937 111.963 35.6937C113.19 35.6937 114.13 34.6943 114.13 33.4871Z" fill="white"/>
    <path d="M118.272 31.3695C117.323 31.4486 116.729 32.0522 116.729 33.022V36.1885H116.036V30.7757H116.729V31.5575H116.749C117.045 30.8648 117.57 30.6867 118.272 30.6372V31.3695Z" fill="white"/>
    <path d="M123.587 36.1885H122.696L120.915 34.0511L120.044 35.1594V36.1885H119.352V28.866H120.044V34.0808H120.064L122.588 30.7758H123.478L121.341 33.5069L123.587 36.1885Z" fill="white"/>
    <path d="M129.459 33.5365C129.459 33.6058 129.449 33.6652 129.449 33.7344H124.522C124.571 34.8031 125.561 35.6937 126.619 35.6937C127.451 35.6937 128.262 35.2187 128.559 34.4172H129.291C128.895 35.5453 127.827 36.3171 126.629 36.3171C125.066 36.3171 123.809 35.0406 123.809 33.4871C123.809 31.9434 125.066 30.6372 126.619 30.6372C128.203 30.6372 129.459 31.9731 129.459 33.5365ZM128.747 33.111C128.569 32.0522 127.718 31.2606 126.629 31.2606C125.551 31.2606 124.69 32.0522 124.522 33.111H128.747Z" fill="white"/>
    <path d="M133.134 31.3992H131.838V36.1885H131.145V31.3992H130.007V30.7758H131.145V28.866H131.838V30.7758H133.134V31.3992Z" fill="white"/>
    <path d="M139.585 33.4673C139.585 35.1 138.298 36.3171 136.675 36.3171C135.834 36.3171 135.043 35.9312 134.568 35.2385H134.548V38.0884H133.855V30.7757H134.548V31.7257H134.568C135.062 31.0231 135.824 30.6372 136.675 30.6372C138.269 30.6372 139.585 31.8444 139.585 33.4673ZM138.892 33.4969C138.892 32.2205 137.962 31.2606 136.675 31.2606C135.448 31.2606 134.508 32.2798 134.508 33.4871C134.508 34.6943 135.448 35.6937 136.675 35.6937C137.942 35.6937 138.892 34.7635 138.892 33.4969Z" fill="white"/>
    <path d="M141.303 36.1885H140.61V28.866H141.303V36.1885Z" fill="white"/>
    <path d="M148.093 36.1885H147.4V35.2385H147.38C146.905 35.951 146.114 36.3171 145.273 36.3171C143.65 36.3171 142.364 35.1 142.364 33.4673C142.364 31.8444 143.68 30.6372 145.273 30.6372C146.124 30.6372 146.915 30.9934 147.38 31.7257H147.4V30.7757H148.093V36.1885ZM147.44 33.4871C147.44 32.2798 146.5 31.2606 145.273 31.2606C143.986 31.2606 143.056 32.2205 143.056 33.4969C143.056 34.7635 144.006 35.6937 145.273 35.6937C146.5 35.6937 147.44 34.6943 147.44 33.4871Z" fill="white"/>
    <path d="M154.709 34.5953C154.155 35.6838 153.274 36.3171 152.018 36.3171C150.424 36.3171 149.108 35.1 149.108 33.4871C149.108 31.8939 150.434 30.6372 152.018 30.6372C153.195 30.6372 154.264 31.3002 154.709 32.4085H153.947C153.571 31.696 152.849 31.2606 152.037 31.2606C150.801 31.2606 149.801 32.2205 149.801 33.4673C149.801 34.724 150.781 35.6937 152.037 35.6937C152.839 35.6937 153.571 35.3177 153.947 34.5953H154.709Z" fill="white"/>
    <path d="M161.136 33.5365C161.136 33.6058 161.126 33.6652 161.126 33.7344H156.198C156.248 34.8031 157.237 35.6937 158.296 35.6937C159.127 35.6937 159.938 35.2187 160.235 34.4172H160.968C160.572 35.5453 159.503 36.3171 158.306 36.3171C156.742 36.3171 155.486 35.0406 155.486 33.4871C155.486 31.9434 156.742 30.6372 158.296 30.6372C159.879 30.6372 161.136 31.9731 161.136 33.5365ZM160.423 33.111C160.245 32.0522 159.394 31.2606 158.306 31.2606C157.227 31.2606 156.366 32.0522 156.198 33.111H160.423Z" fill="white"/>
  </g>
  <defs>
    <clipPath id="clip0_92_3939">
      <rect width="162" height="40.1466" fill="white"/>
    </clipPath>
  </defs>
</svg>