<svg id="Capa_1" data-name="Capa 1"
  xmlns="http://www.w3.org/2000/svg" viewBox="600 400 750 300">
  <title>AAFF_01</title>
  <path
    fill="#0098c3"
    d="M806.78,656.65l.05,0h0Z"
  />
  <path
    fill="#0098c3"
    d="M679.93,657.38H804.87a2.93,2.93,0,0,0,2-.77h0a2.9,2.9,0,0,0,1-2.16h0V538.37A290.87,290.87,0,0,1,623.55,615.1,58.75,58.75,0,0,0,679.93,657.38Z"
  />
  <path
    fill="#0098c3"
    d="M807.8,654.45h0Z"
  />
  <path
    fill="#0098c3"
    d="M807.79,654.59a.66.66,0,0,0,0-.14h0A.66.66,0,0,1,807.79,654.59Z"
  />
  <path
    fill="#0098c3"
    d="M610.31,615.41h0Z"
  />
  <path
    fill="#0098c3"
    d="M804.86,422.52h-.22A58.74,58.74,0,0,0,750.4,470.8h0a2.94,2.94,0,0,1-2.88,2.39,3,3,0,0,1-1.47-.39h0l0,0-.16-.1a58.65,58.65,0,0,0-87,68.22h0a2.9,2.9,0,0,1,.16.94,3,3,0,0,1-1.85,2.73h0A58.67,58.67,0,0,0,623.51,615C724,608.33,804,526.57,807.78,425.3A2.92,2.92,0,0,0,804.86,422.52Z"
  />  
  <path
    fill="#0098c3"
    d="M899,422.62a51.18,51.18,0,0,1,51.31,51.31c0,28.1-23.07,50.77-51.31,50.77s-51.3-22.67-51.3-50.77A51.17,51.17,0,0,1,899,422.62Zm0,85.11c18.7,0,33.15-15.77,33.15-33.94,0-18.82-14.72-34.2-33.15-34.2s-33.14,15.38-33.14,34.2C865.83,492,880.28,507.73,899,507.73Z"
  />
  <path
    fill="#0098c3"
    d="M957.42,449.13H973.6v8.62h.26a29,29,0,0,1,23.86-11.13c24.13,0,36.86,20.81,36.86,39,0,21.74-16,39.51-36.86,39.51-12.46,0-18-5-22.67-9.41v31.55H957.42Zm38.05,59.79c9.41,0,21.48-7.95,21.48-23.06,0-13.53-10.34-23.07-21.21-23.07S974,471.67,974,485.86C974,502.16,987.12,508.92,995.47,508.92Z"
  />
  <path
    fill="#0098c3"
    d="M1059.81,493.81c.79,4.78,7.69,15.11,20.28,15.11,7.82,0,13.66-3.31,17-9.41h18.56c-4.24,13.26-18.3,25.59-35.53,25.59a38.67,38.67,0,0,1-38.84-39c0-20.81,16-39.9,38.71-39.9,23.33,0,38,20.15,38,38.71a40.66,40.66,0,0,1-1.06,8.88ZM1100,479.63c-2-11.8-11.14-17.24-19.89-17.24-6.5,0-17.5,3.58-20.81,17.24Z"
  />
  <path
    fill="#0098c3"
    d="M1124.7,449.13H1141v6.37c2.92-2.78,9-8.88,20.16-8.88,6.36,0,16,2.78,22.13,10.2,6.76,8.09,6.76,20.42,6.76,26.12v39.77h-17.63V486.39c0-6.1,0-23.6-14.84-23.6a15.08,15.08,0,0,0-12.07,6.5c-3.18,4.5-3.18,12.19-3.18,18.42v35H1124.7Z"
  />  
  <path
    fill="#0098c3"
    d="M859.13,557h20.68l40.57,71.33h.26V557h18.17v98.1H918.52l-41-71.32h-.27v71.32H859.13Z"
  />
  <path
    fill="#0098c3"
    d="M968.44,626.19c.79,4.78,7.69,15.12,20.28,15.12,7.82,0,13.66-3.32,17-9.42h18.56c-4.24,13.26-18.29,25.59-35.53,25.59a38.67,38.67,0,0,1-38.84-39c0-20.82,16-39.91,38.71-39.91,23.33,0,38.05,20.15,38.05,38.71a40.66,40.66,0,0,1-1.06,8.88ZM1008.61,612c-2-11.8-11.14-17.23-19.89-17.23-6.49,0-17.5,3.57-20.81,17.23Z"
  />
  <path
    fill="#0098c3"
    d="M1036.86,557h17.63v31.16a32.7,32.7,0,0,1,22.93-9.15c22.41,0,37,19.48,37,39,0,14.71-9.68,39.5-36.59,39.5-14.18,0-20.41-6.36-24.79-11.27v8.88h-16.17Zm38.71,84.32c11.53,0,21.21-8.89,21.21-23.2s-10.34-22.94-21.48-22.94c-13.52,0-21.87,11.4-21.87,22.14C1053.43,633.62,1065.23,641.31,1075.57,641.31Z"
  />
  <path
    fill="#0098c3"
    d="M1190.12,581.52v73.57H1174v-7.42h-.27c-2.91,4-7.69,9.81-19,9.81-13.39,0-20.94-6.63-24.65-11.67-5.44-7.82-5.44-19.75-5.44-25.85V581.52h17.63V619c0,6,0,22.27,15.38,22.27,11.14,0,14.85-10.48,14.85-22.14V581.52Z"
  />
  <path
    fill="#0098c3"
    d="M1204.21,557h17.63v98.1h-17.63Z"
  />
  <path
    fill="#0098c3"
    d="M1309.73,655.09h-16.17V646c-5.57,6.62-16.44,11.53-25.72,11.53-18.95,0-35.79-15.11-35.79-39.64,0-22.53,16.44-38.84,36.85-38.84,15,0,23.87,10.74,24.4,11.8h.26v-9.28h16.17Zm-38.18-59.92c-14.44,0-21.87,12.46-21.87,23.47,0,12.46,9.28,22.67,21.87,22.67,12.2,0,21.48-9.55,21.48-23.2C1293,602.86,1282,595.17,1271.55,595.17Z"
  />
  <polygon
    fill="#0098c3"
    points="806.83 656.61 806.83 656.61 806.83 656.61 806.83 656.61 806.83 656.61"
  />  
</svg>